<?xml version="1.0" encoding="UTF-8" standalone="no"?>
<svg
   xmlns:dc="http://purl.org/dc/elements/1.1/"
   xmlns:cc="http://creativecommons.org/ns#"
   xmlns:rdf="http://www.w3.org/1999/02/22-rdf-syntax-ns#"
   xmlns:svg="http://www.w3.org/2000/svg"
   xmlns="http://www.w3.org/2000/svg"
   xmlns:sodipodi="http://sodipodi.sourceforge.net/DTD/sodipodi-0.dtd"
   xmlns:inkscape="http://www.inkscape.org/namespaces/inkscape"
   inkscape:export-ydpi="218.42"
   inkscape:export-xdpi="218.42"
   inkscape:export-filename="C:\Users\memet\Desktop\logo.png"
   inkscape:version="1.0 (4035a4fb49, 2020-05-01)"
   sodipodi:docname="cleandesign-title-black.svg"
   id="svg4594"
   style="clip-rule:evenodd;fill-rule:evenodd;stroke-linejoin:round;stroke-miterlimit:1.41421"
   xml:space="preserve"
   version="1.1"
   viewBox="0 0 525.65698 91.640999"
   height="91.640999"
   width="525.65698"><metadata
   id="metadata4600"><rdf:RDF><cc:Work
       rdf:about=""><dc:format>image/svg+xml</dc:format><dc:type
         rdf:resource="http://purl.org/dc/dcmitype/StillImage" /><dc:title></dc:title></cc:Work></rdf:RDF></metadata><defs
   id="defs4598" /><sodipodi:namedview
   fit-margin-bottom="0"
   fit-margin-right="0"
   fit-margin-left="0"
   fit-margin-top="0"
   inkscape:document-rotation="0"
   inkscape:guide-bbox="true"
   showguides="true"
   inkscape:current-layer="svg4594"
   inkscape:window-maximized="1"
   inkscape:window-y="-11"
   inkscape:window-x="3829"
   inkscape:cy="101.99386"
   inkscape:cx="391.27385"
   inkscape:zoom="1.8496541"
   showgrid="false"
   id="namedview4596"
   inkscape:window-height="2080"
   inkscape:window-width="3840"
   inkscape:pageshadow="2"
   inkscape:pageopacity="0"
   guidetolerance="10"
   gridtolerance="10"
   objecttolerance="10"
   borderopacity="1"
   bordercolor="#666666"
   pagecolor="#ffffff"><sodipodi:guide
     inkscape:locked="false"
     id="guide842"
     orientation="1,0"
     position="0.39553984,-65.149834" /></sodipodi:namedview>
    <g
   id="g4582"
   transform="translate(-227.858,-220.21)">
        <path
   inkscape:connector-curvature="0"
   id="path4560"
   style="fill:#91d050;fill-rule:nonzero"
   d="m 227.858,256.632 c 0,-12.062 3.235,-21.359 9.704,-27.89 5.625,-5.688 12.781,-8.532 21.468,-8.532 11.625,0 20.125,3.813 25.5,11.438 2.969,4.281 4.563,8.578 4.782,12.891 h -14.438 c -0.937,-3.313 -2.141,-5.813 -3.609,-7.5 -2.625,-3 -6.516,-4.5 -11.672,-4.5 -5.25,0 -9.391,2.117 -12.422,6.351 -3.031,4.234 -4.547,10.227 -4.547,17.977 0,7.75 1.602,13.554 4.805,17.414 3.203,3.859 7.273,5.789 12.211,5.789 5.062,0 8.922,-1.656 11.578,-4.969 1.469,-1.781 2.687,-4.453 3.656,-8.016 h 14.297 c -1.25,7.532 -4.445,13.657 -9.586,18.375 -5.141,4.719 -11.727,7.079 -19.758,7.079 -9.937,0 -17.75,-3.188 -23.437,-9.563 -5.688,-6.406 -8.532,-15.187 -8.532,-26.344 z" />
        <rect
   id="rect4562"
   style="fill:#91d050;fill-rule:nonzero"
   height="69.094002"
   width="13.359"
   y="221.52299"
   x="296.98999" />
        <path
   inkscape:connector-curvature="0"
   id="path4564"
   style="fill:#91d050;fill-rule:nonzero"
   d="m 341.137,249.179 c -3.094,0 -5.493,0.969 -7.196,2.906 -1.703,1.938 -2.773,4.563 -3.211,7.875 h 20.766 c -0.219,-3.531 -1.289,-6.211 -3.211,-8.039 -1.922,-1.828 -4.305,-2.742 -7.148,-2.742 z m 0,-11.015 c 4.25,0 8.078,0.796 11.484,2.39 3.406,1.594 6.219,4.11 8.437,7.547 2,3.031 3.297,6.547 3.891,10.547 0.344,2.344 0.484,5.719 0.422,10.125 h -34.969 c 0.188,5.125 1.797,8.719 4.828,10.781 1.844,1.281 4.063,1.922 6.657,1.922 2.75,0 4.984,-0.781 6.703,-2.344 0.937,-0.843 1.765,-2.015 2.484,-3.515 h 13.641 c -0.344,3.031 -1.922,6.109 -4.735,9.234 -4.375,4.969 -10.5,7.453 -18.375,7.453 -6.5,0 -12.234,-2.094 -17.203,-6.281 -4.969,-4.188 -7.453,-11 -7.453,-20.438 0,-8.843 2.242,-15.625 6.727,-20.343 4.484,-4.719 10.304,-7.078 17.461,-7.078 z" />
        <path
   inkscape:connector-curvature="0"
   id="path4566"
   style="fill:#91d050;fill-rule:nonzero"
   d="m 400.143,265.773 c -0.844,0.531 -1.696,0.961 -2.555,1.289 -0.859,0.328 -2.039,0.633 -3.539,0.914 l -3,0.563 c -2.812,0.5 -4.828,1.109 -6.047,1.828 -2.062,1.218 -3.094,3.109 -3.094,5.672 0,2.281 0.633,3.929 1.899,4.945 1.265,1.015 2.805,1.523 4.617,1.523 2.875,0 5.523,-0.843 7.945,-2.531 2.422,-1.687 3.68,-4.766 3.774,-9.234 z m -8.11,-6.234 c 2.469,-0.313 4.235,-0.704 5.297,-1.172 1.907,-0.813 2.86,-2.078 2.86,-3.797 0,-2.094 -0.727,-3.539 -2.18,-4.336 -1.453,-0.797 -3.586,-1.195 -6.398,-1.195 -3.157,0 -5.391,0.781 -6.704,2.343 -0.937,1.157 -1.562,2.719 -1.875,4.688 h -12.89 c 0.281,-4.469 1.531,-8.141 3.75,-11.016 3.531,-4.5 9.594,-6.75 18.187,-6.75 5.594,0 10.563,1.11 14.907,3.328 4.343,2.219 6.515,6.407 6.515,12.563 v 23.437 c 0,1.625 0.031,3.594 0.094,5.907 0.094,1.75 0.359,2.937 0.797,3.562 0.437,0.625 1.094,1.141 1.969,1.547 v 1.969 H 401.83 c -0.406,-1.032 -0.687,-2 -0.843,-2.907 -0.157,-0.906 -0.282,-1.937 -0.375,-3.093 -1.844,2 -3.969,3.703 -6.375,5.109 -2.875,1.656 -6.125,2.484 -9.75,2.484 -4.625,0 -8.446,-1.32 -11.461,-3.961 -3.016,-2.64 -4.524,-6.382 -4.524,-11.226 0,-6.281 2.422,-10.828 7.266,-13.641 2.656,-1.531 6.562,-2.625 11.719,-3.281 z" />
        <path
   inkscape:connector-curvature="0"
   id="path4568"
   style="fill:#91d050;fill-rule:nonzero"
   d="m 451.274,238.304 c 5.281,0 9.602,1.383 12.961,4.149 3.359,2.765 5.039,7.351 5.039,13.757 v 34.407 h -13.687 v -31.078 c 0,-2.688 -0.36,-4.75 -1.079,-6.188 -1.312,-2.625 -3.812,-3.937 -7.5,-3.937 -4.531,0 -7.64,1.921 -9.328,5.765 -0.875,2.031 -1.312,4.625 -1.312,7.781 v 27.657 h -13.313 v -51 h 12.891 v 7.453 c 1.719,-2.625 3.344,-4.516 4.875,-5.672 2.75,-2.063 6.234,-3.094 10.453,-3.094 z" />
        <path
   inkscape:connector-curvature="0"
   id="path4570"
   style="fill-rule:nonzero"
   d="m 506.718,282.648 c 3.156,0 5.75,-0.328 7.781,-0.984 3.625,-1.219 6.594,-3.563 8.906,-7.032 1.844,-2.781 3.172,-6.343 3.985,-10.687 0.468,-2.594 0.703,-5 0.703,-7.219 0,-8.531 -1.696,-15.156 -5.086,-19.875 -3.391,-4.719 -8.852,-7.078 -16.383,-7.078 h -16.547 v 52.875 z m -26.016,-60.891 h 27.891 c 9.469,0 16.812,3.36 22.031,10.078 4.656,6.063 6.984,13.829 6.984,23.297 0,7.313 -1.375,13.922 -4.125,19.828 -4.843,10.438 -13.171,15.657 -24.984,15.657 h -27.797 z" />
        <path
   inkscape:connector-curvature="0"
   id="path4572"
   style="fill-rule:nonzero"
   d="m 566.99,239.289 c 3.562,0 7.015,0.835 10.359,2.507 3.344,1.672 5.891,3.836 7.641,6.493 1.687,2.531 2.812,5.484 3.375,8.859 0.5,2.312 0.75,6 0.75,11.062 h -36.797 c 0.156,5.094 1.359,9.18 3.609,12.258 2.25,3.078 5.735,4.617 10.453,4.617 4.407,0 7.922,-1.453 10.547,-4.359 1.5,-1.687 2.563,-3.641 3.188,-5.859 h 8.297 c -0.219,1.843 -0.946,3.898 -2.18,6.164 -1.235,2.265 -2.617,4.117 -4.149,5.554 -2.562,2.5 -5.734,4.188 -9.515,5.063 -2.031,0.5 -4.328,0.75 -6.891,0.75 -6.25,0 -11.547,-2.274 -15.89,-6.82 -4.344,-4.547 -6.516,-10.914 -6.516,-19.102 0,-8.062 2.187,-14.609 6.562,-19.641 4.375,-5.031 10.094,-7.546 17.157,-7.546 z m 13.453,22.218 c -0.344,-3.656 -1.141,-6.578 -2.391,-8.765 -2.312,-4.063 -6.172,-6.094 -11.578,-6.094 -3.875,0 -7.125,1.398 -9.75,4.195 -2.625,2.797 -4.016,6.352 -4.172,10.664 z" />
        <path
   inkscape:connector-curvature="0"
   id="path4574"
   style="fill-rule:nonzero"
   d="m 602.09,274.867 c 0.25,2.812 0.953,4.968 2.109,6.468 2.125,2.719 5.813,4.079 11.063,4.079 3.125,0 5.875,-0.68 8.25,-2.04 2.375,-1.359 3.562,-3.46 3.562,-6.304 0,-2.156 -0.953,-3.797 -2.859,-4.922 -1.219,-0.688 -3.625,-1.484 -7.219,-2.391 l -6.703,-1.687 c -4.281,-1.063 -7.438,-2.25 -9.469,-3.563 -3.625,-2.281 -5.437,-5.437 -5.437,-9.468 0,-4.75 1.71,-8.594 5.132,-11.532 3.422,-2.937 8.024,-4.406 13.805,-4.406 7.563,0 13.016,2.219 16.359,6.656 2.094,2.813 3.11,5.844 3.047,9.094 h -7.968 c -0.157,-1.906 -0.829,-3.641 -2.016,-5.203 -1.938,-2.219 -5.297,-3.328 -10.078,-3.328 -3.188,0 -5.602,0.609 -7.242,1.828 -1.641,1.219 -2.461,2.828 -2.461,4.828 0,2.188 1.078,3.938 3.234,5.25 1.25,0.781 3.094,1.469 5.531,2.063 l 5.578,1.359 c 6.063,1.469 10.125,2.891 12.188,4.266 3.281,2.156 4.922,5.546 4.922,10.171 0,4.469 -1.696,8.329 -5.086,11.579 -3.391,3.25 -8.555,4.875 -15.492,4.875 -7.469,0 -12.758,-1.696 -15.868,-5.086 -3.109,-3.391 -4.773,-7.586 -4.992,-12.586 z" />
        <path
   inkscape:connector-curvature="0"
   id="path4576"
   style="fill-rule:nonzero"
   d="m 642.674,240.648 h 8.578 v 49.969 h -8.578 z m 0,-18.891 h 8.578 v 9.563 h -8.578 z" />
        <path
   inkscape:connector-curvature="0"
   id="path4578"
   style="fill-rule:nonzero"
   d="m 679.321,239.523 c 3.937,0 7.375,0.969 10.312,2.906 1.594,1.094 3.219,2.688 4.875,4.781 v -6.328 h 7.782 v 45.657 c 0,6.375 -0.938,11.406 -2.813,15.093 -3.5,6.813 -10.109,10.219 -19.828,10.219 -5.406,0 -9.953,-1.211 -13.641,-3.633 -3.687,-2.422 -5.75,-6.211 -6.187,-11.367 h 8.578 c 0.406,2.25 1.219,3.984 2.438,5.203 1.906,1.875 4.906,2.813 9,2.813 6.468,0 10.703,-2.282 12.703,-6.844 1.187,-2.688 1.734,-7.484 1.64,-14.391 -1.687,2.563 -3.718,4.469 -6.093,5.719 -2.375,1.25 -5.516,1.875 -9.422,1.875 -5.438,0 -10.196,-1.93 -14.274,-5.789 -4.078,-3.859 -6.117,-10.242 -6.117,-19.148 0,-8.407 2.055,-14.969 6.164,-19.688 4.109,-4.719 9.07,-7.078 14.883,-7.078 z m 15.187,25.781 c 0,-6.219 -1.281,-10.828 -3.843,-13.828 -2.563,-3 -5.828,-4.5 -9.797,-4.5 -5.938,0 -10,2.781 -12.188,8.344 -1.156,2.969 -1.734,6.859 -1.734,11.672 0,5.656 1.148,9.961 3.445,12.914 2.297,2.953 5.383,4.429 9.258,4.429 6.063,0 10.328,-2.734 12.797,-8.203 1.375,-3.093 2.062,-6.703 2.062,-10.828 z" />
        <path
   inkscape:connector-curvature="0"
   id="path4580"
   style="fill-rule:nonzero"
   d="m 712.593,240.414 h 8.015 v 7.125 c 2.375,-2.938 4.891,-5.047 7.547,-6.329 2.657,-1.281 5.61,-1.921 8.86,-1.921 7.125,0 11.937,2.484 14.437,7.453 1.375,2.718 2.063,6.609 2.063,11.672 v 32.203 h -8.578 v -31.641 c 0,-3.062 -0.454,-5.531 -1.36,-7.406 -1.5,-3.125 -4.219,-4.688 -8.156,-4.688 -2,0 -3.641,0.203 -4.922,0.61 -2.312,0.687 -4.344,2.062 -6.094,4.125 -1.406,1.656 -2.32,3.367 -2.742,5.132 -0.422,1.766 -0.633,4.29 -0.633,7.571 v 26.297 h -8.437 z" />
    </g>
    
    

</svg>
